<mxfile host="app.diagrams.net" modified="2023-11-02T14:32:51.558Z" agent="Mozilla/5.0 (Windows NT 10.0; Win64; x64) AppleWebKit/537.36 (KHTML, like Gecko) Chrome/118.0.0.0 Safari/537.36" etag="6bMf010vfQt9vfUUoHu4" version="22.0.8" type="github">
  <diagram name="Page-1" id="dBFETTc5q_xYWAw8RrzY">
    <mxGraphModel dx="1034" dy="1593" grid="1" gridSize="10" guides="1" tooltips="1" connect="1" arrows="1" fold="1" page="1" pageScale="1" pageWidth="827" pageHeight="1169" math="0" shadow="0">
      <root>
        <mxCell id="0" />
        <mxCell id="1" parent="0" />
        <mxCell id="J7XlCFZAfjOm0HScchWh-1" value="" style="rounded=0;whiteSpace=wrap;html=1;fillColor=#dae8fc;strokeColor=#6c8ebf;" vertex="1" parent="1">
          <mxGeometry x="70" y="-20" width="510" height="440" as="geometry" />
        </mxCell>
        <mxCell id="J7XlCFZAfjOm0HScchWh-2" value="" style="whiteSpace=wrap;html=1;aspect=fixed;fillColor=#bac8d3;strokeColor=#23445d;" vertex="1" parent="1">
          <mxGeometry x="80" y="30" width="120" height="120" as="geometry" />
        </mxCell>
        <mxCell id="J7XlCFZAfjOm0HScchWh-3" value="" style="whiteSpace=wrap;html=1;aspect=fixed;fillColor=#bac8d3;strokeColor=#23445d;" vertex="1" parent="1">
          <mxGeometry x="80" y="290" width="120" height="120" as="geometry" />
        </mxCell>
        <mxCell id="J7XlCFZAfjOm0HScchWh-4" value="" style="whiteSpace=wrap;html=1;aspect=fixed;fillColor=#bac8d3;strokeColor=#23445d;" vertex="1" parent="1">
          <mxGeometry x="80" y="160" width="120" height="120" as="geometry" />
        </mxCell>
        <mxCell id="J7XlCFZAfjOm0HScchWh-5" value="&lt;b&gt;Master&lt;/b&gt;" style="text;html=1;strokeColor=none;fillColor=none;align=center;verticalAlign=middle;whiteSpace=wrap;rounded=0;" vertex="1" parent="1">
          <mxGeometry x="110" y="20" width="60" height="30" as="geometry" />
        </mxCell>
        <mxCell id="J7XlCFZAfjOm0HScchWh-6" value="&lt;b&gt;Master&lt;/b&gt;" style="text;html=1;strokeColor=none;fillColor=none;align=center;verticalAlign=middle;whiteSpace=wrap;rounded=0;" vertex="1" parent="1">
          <mxGeometry x="110" y="150" width="60" height="30" as="geometry" />
        </mxCell>
        <mxCell id="J7XlCFZAfjOm0HScchWh-7" value="&lt;b&gt;Master&lt;/b&gt;" style="text;html=1;strokeColor=none;fillColor=none;align=center;verticalAlign=middle;whiteSpace=wrap;rounded=0;" vertex="1" parent="1">
          <mxGeometry x="110" y="280" width="60" height="30" as="geometry" />
        </mxCell>
        <mxCell id="J7XlCFZAfjOm0HScchWh-8" value="" style="whiteSpace=wrap;html=1;aspect=fixed;fillColor=#bac8d3;strokeColor=#23445d;" vertex="1" parent="1">
          <mxGeometry x="450" y="250" width="120" height="120" as="geometry" />
        </mxCell>
        <mxCell id="J7XlCFZAfjOm0HScchWh-9" value="" style="whiteSpace=wrap;html=1;aspect=fixed;fillColor=#bac8d3;strokeColor=#23445d;" vertex="1" parent="1">
          <mxGeometry x="450" y="70" width="120" height="120" as="geometry" />
        </mxCell>
        <mxCell id="J7XlCFZAfjOm0HScchWh-10" value="&lt;b&gt;Node&lt;/b&gt;" style="text;html=1;strokeColor=none;fillColor=none;align=center;verticalAlign=middle;whiteSpace=wrap;rounded=0;" vertex="1" parent="1">
          <mxGeometry x="480" y="240" width="60" height="30" as="geometry" />
        </mxCell>
        <mxCell id="J7XlCFZAfjOm0HScchWh-11" value="&lt;b&gt;Node&lt;/b&gt;" style="text;html=1;strokeColor=none;fillColor=none;align=center;verticalAlign=middle;whiteSpace=wrap;rounded=0;" vertex="1" parent="1">
          <mxGeometry x="480" y="60" width="60" height="30" as="geometry" />
        </mxCell>
        <mxCell id="J7XlCFZAfjOm0HScchWh-12" value="Api server&lt;br&gt;Scheduler&lt;br&gt;Controller Manager" style="text;html=1;strokeColor=none;fillColor=none;align=center;verticalAlign=middle;whiteSpace=wrap;rounded=0;" vertex="1" parent="1">
          <mxGeometry x="80" y="244" width="120" height="30" as="geometry" />
        </mxCell>
        <mxCell id="J7XlCFZAfjOm0HScchWh-13" value="Api server&lt;br&gt;Scheduler&lt;br&gt;Controller Manager" style="text;html=1;strokeColor=none;fillColor=none;align=center;verticalAlign=middle;whiteSpace=wrap;rounded=0;" vertex="1" parent="1">
          <mxGeometry x="80" y="375" width="120" height="30" as="geometry" />
        </mxCell>
        <mxCell id="J7XlCFZAfjOm0HScchWh-14" value="Api server&lt;br&gt;Scheduler&lt;br&gt;Controller Manager" style="text;html=1;strokeColor=none;fillColor=none;align=center;verticalAlign=middle;whiteSpace=wrap;rounded=0;" vertex="1" parent="1">
          <mxGeometry x="80" y="115" width="120" height="30" as="geometry" />
        </mxCell>
        <mxCell id="J7XlCFZAfjOm0HScchWh-15" value="ETCD" style="text;html=1;strokeColor=none;fillColor=none;align=center;verticalAlign=middle;whiteSpace=wrap;rounded=0;" vertex="1" parent="1">
          <mxGeometry x="120" y="90" width="40" height="30" as="geometry" />
        </mxCell>
        <mxCell id="J7XlCFZAfjOm0HScchWh-16" value="ETCD" style="text;html=1;strokeColor=none;fillColor=none;align=center;verticalAlign=middle;whiteSpace=wrap;rounded=0;" vertex="1" parent="1">
          <mxGeometry x="120" y="220" width="40" height="30" as="geometry" />
        </mxCell>
        <mxCell id="J7XlCFZAfjOm0HScchWh-17" value="ETCD" style="text;html=1;strokeColor=none;fillColor=none;align=center;verticalAlign=middle;whiteSpace=wrap;rounded=0;" vertex="1" parent="1">
          <mxGeometry x="120" y="345" width="40" height="30" as="geometry" />
        </mxCell>
        <mxCell id="J7XlCFZAfjOm0HScchWh-18" value="Kubelet&lt;br&gt;Kube-proxy" style="text;html=1;strokeColor=none;fillColor=none;align=center;verticalAlign=middle;whiteSpace=wrap;rounded=0;" vertex="1" parent="1">
          <mxGeometry x="450" y="150" width="120" height="30" as="geometry" />
        </mxCell>
        <mxCell id="J7XlCFZAfjOm0HScchWh-19" value="Kubelet&lt;br&gt;Kube-proxy" style="text;html=1;strokeColor=none;fillColor=none;align=center;verticalAlign=middle;whiteSpace=wrap;rounded=0;" vertex="1" parent="1">
          <mxGeometry x="450" y="340" width="120" height="30" as="geometry" />
        </mxCell>
        <mxCell id="J7XlCFZAfjOm0HScchWh-20" value="&lt;font style=&quot;font-size: 16px;&quot;&gt;&lt;b&gt;OpenShift Container Platforme&lt;/b&gt;&lt;/font&gt;" style="text;html=1;align=center;verticalAlign=middle;resizable=0;points=[];autosize=1;strokeColor=none;fillColor=none;" vertex="1" parent="1">
          <mxGeometry x="185" y="-20" width="260" height="30" as="geometry" />
        </mxCell>
      </root>
    </mxGraphModel>
  </diagram>
</mxfile>
